Coordinates
version=1
nRows=32
nColumns=12
inDegrees=yes

Units are S.I. units (second, meters, Newtons, ...)
Angles are in degrees

endheader
time	SC_y	SC_z	SC_x	AC_y	AC_z	AC_x	GH_y	GH_z	GH_yy	EL_x	PS_y
       0.0              -57.81          35.01          78.52           45.9        0.02564         -10.09         -102.2          48.25         -87.41          110.7          143.7
  0.002013              -57.81           35.0          78.51           45.9         0.0242         -10.09         -102.2          48.25         -87.38          110.7          143.6
  0.004025               -57.8           35.0          78.51          45.91        0.02267         -10.09         -102.2          48.24         -87.35          110.6          143.6
  0.006038              -57.79          34.99          78.51          45.91        0.02105         -10.09         -102.2          48.24         -87.31          110.6          143.6
  0.008051              -57.79          34.99          78.51          45.91        0.01931         -10.09         -102.2          48.23         -87.28          110.6          143.6
   0.01006              -57.78          34.98          78.51          45.92        0.01747         -10.09         -102.2          48.23         -87.24          110.6          143.6
   0.01208              -57.77          34.98          78.51          45.92        0.01549         -10.09         -102.2          48.22          -87.2          110.6          143.6
   0.01409              -57.76          34.97          78.51          45.93        0.01339         -10.09         -102.2          48.21         -87.16          110.6          143.6
    0.0161              -57.75          34.96          78.51          45.93        0.01113         -10.09         -102.2          48.21         -87.12          110.5          143.6
   0.01811              -57.74          34.95           78.5          45.94       0.008706         -10.09         -102.2           48.2         -87.07          110.5          143.6
   0.02013              -57.73          34.94           78.5          45.95       0.006104         -10.09         -102.2          48.19         -87.02          110.5          143.6
   0.02214              -57.71          34.93           78.5          45.95       0.003304         -10.09         -102.2          48.18         -86.96          110.5          143.6
   0.02415               -57.7          34.92           78.5          45.96      0.0002855          -10.1         -102.2          48.17          -86.9          110.4          143.6
   0.02617              -57.69          34.91           78.5          45.97      -0.002975          -10.1         -102.2          48.16         -86.84          110.4          143.6
   0.02818              -57.67           34.9          78.49          45.98      -0.006503          -10.1         -102.2          48.15         -86.77          110.4          143.6
   0.03019              -57.65          34.89          78.49          45.99       -0.01033          -10.1         -102.3          48.14         -86.69          110.3          143.5
    0.0322              -57.63          34.88          78.49           46.0       -0.01449          -10.1         -102.3          48.13         -86.61          110.3          143.5
   0.03422              -57.61          34.86          78.49          46.01       -0.01902          -10.1         -102.3          48.11         -86.52          110.3          143.5
   0.03623              -57.59          34.84          78.48          46.02       -0.02397          -10.1         -102.3           48.1         -86.42          110.2          143.5
   0.03824              -57.57          34.83          78.48          46.03       -0.02938          -10.1         -102.3          48.08         -86.31          110.2          143.5
   0.04025              -57.54          34.81          78.48          46.05       -0.03533          -10.1         -102.3          48.06         -86.19          110.1          143.5
   0.04227              -57.51          34.79          78.47          46.06       -0.04188         -10.11         -102.3          48.04         -86.06          110.1          143.4
   0.04428              -57.48          34.76          78.47          46.08       -0.04911         -10.11         -102.4          48.02         -85.92          110.0          143.4
   0.04629              -57.44          34.74          78.46           46.1       -0.05712         -10.11         -102.4          47.99         -85.76          109.9          143.4
    0.0483               -57.4          34.71          78.45          46.12       -0.06602         -10.11         -102.4          47.96         -85.58          109.8          143.4
   0.05032              -57.36          34.67          78.45          46.15       -0.07596         -10.12         -102.4          47.93         -85.38          109.7          143.3
   0.05233              -57.31          34.64          78.44          46.17       -0.08709         -10.12         -102.5           47.9         -85.16          109.6          143.3
   0.05434              -57.25          34.59          78.43           46.2       -0.09961         -10.12         -102.5          47.86         -84.91          109.5          143.3
   0.05636              -57.19          34.55          78.42          46.24        -0.1138         -10.12         -102.5          47.81         -84.63          109.4          143.2
   0.05837              -57.12           34.5          78.41          46.28        -0.1298         -10.13         -102.6          47.76         -84.31          109.3          143.2
   0.06038              -57.03          34.43           78.4          46.32        -0.1482         -10.13         -102.6           47.7         -83.94          109.1          143.1
   0.06239              -56.94          34.36          78.39          46.37        -0.1692         -10.14         -102.7          47.64         -83.52          108.9          143.0
